# Blender v3.0.0 OBJ File: ''
# www.blender.org
mtllib testmap.mtl
o Sphere_Sphere.001
v 0.000000 1.277391 0.309017
v 0.000000 1.419430 0.587785
v -0.345491 1.419430 0.475528
v -0.181636 1.277391 0.250000
v 0.000000 1.919430 0.951056
v 0.000000 2.228447 1.000000
v -0.587785 2.228447 0.809017
v -0.559017 1.919430 0.769421
v 0.000000 2.816232 0.809017
v 0.000000 3.037464 0.587785
v -0.345492 3.037464 0.475529
v -0.475528 2.816232 0.654509
v 0.000000 1.228447 0.000000
v 0.000000 1.640662 0.809017
v -0.475528 1.640662 0.654509
v 0.000000 2.537464 0.951056
v -0.559017 2.537464 0.769421
v 0.000000 3.179504 0.309018
v 0.000000 3.228447 0.000005
v -0.181636 3.179504 0.250005
v -0.951057 2.228447 0.309017
v -0.904509 1.919430 0.293893
v -0.559017 3.037464 0.181636
v -0.769421 2.816232 0.250000
v -0.293893 1.277391 0.095491
v -0.769421 1.640662 0.250000
v -0.904509 2.537464 0.293893
v -0.293893 3.179504 0.095496
v -0.559017 1.419430 0.181636
v -0.293893 3.179504 -0.095487
v -0.559017 3.037464 -0.181636
v -0.559017 1.419430 -0.181636
v -0.293893 1.277391 -0.095492
v -0.951057 2.228447 -0.309017
v -0.904509 1.919430 -0.293893
v -0.769421 2.816232 -0.250000
v -0.769421 1.640662 -0.250000
v -0.904509 2.537464 -0.293893
v -0.475528 1.640662 -0.654509
v -0.345492 1.419430 -0.475528
v -0.559017 2.537464 -0.769421
v -0.587785 2.228447 -0.809017
v -0.181636 3.179504 -0.249995
v -0.345492 3.037464 -0.475524
v -0.181636 1.277391 -0.250000
v -0.559017 1.919430 -0.769421
v -0.475528 2.816232 -0.654509
v 0.000000 2.816232 -0.809017
v 0.000000 2.537464 -0.951057
v 0.000000 3.179504 -0.309013
v 0.000000 1.640662 -0.809017
v 0.000000 1.419430 -0.587785
v 0.000000 2.228447 -1.000000
v 0.000000 3.037464 -0.587785
v 0.000000 1.277391 -0.309017
v 0.000000 1.919430 -0.951057
v 0.559017 1.919430 -0.769421
v 0.475528 1.640662 -0.654509
v 0.475528 2.816232 -0.654509
v 0.559017 2.537464 -0.769421
v 0.181636 3.179504 -0.249995
v 0.345491 1.419430 -0.475528
v 0.587785 2.228447 -0.809017
v 0.345491 3.037464 -0.475524
v 0.181636 1.277391 -0.250000
v 0.559017 3.037464 -0.181636
v 0.769421 2.816232 -0.250000
v 0.293893 1.277391 -0.095492
v 0.904508 1.919430 -0.293893
v 0.769421 1.640662 -0.250000
v 0.904509 2.537464 -0.293893
v 0.293893 3.179504 -0.095487
v 0.559017 1.419430 -0.181636
v 0.951057 2.228447 -0.309017
v 0.559017 1.419430 0.181635
v 0.293893 1.277391 0.095491
v 0.951057 2.228447 0.309017
v 0.904509 1.919430 0.293892
v 0.559017 3.037464 0.181635
v 0.769421 2.816232 0.250000
v 0.769421 1.640662 0.250000
v 0.904509 2.537464 0.293892
v 0.293893 3.179504 0.095496
v 0.559017 2.537464 0.769421
v 0.587785 2.228447 0.809017
v 0.181636 3.179504 0.250005
v 0.345492 3.037464 0.475529
v 0.345492 1.419430 0.475528
v 0.181636 1.277391 0.250000
v 0.559017 1.919430 0.769421
v 0.475528 2.816232 0.654508
v 0.475528 1.640662 0.654508
vt 0.700000 0.100000
vt 0.700000 0.200000
vt 0.600000 0.200000
vt 0.600000 0.100000
vt 0.700000 0.400000
vt 0.700000 0.500000
vt 0.600000 0.500000
vt 0.600000 0.400000
vt 0.700000 0.700000
vt 0.700000 0.800000
vt 0.600000 0.800000
vt 0.600000 0.700000
vt 0.650000 0.000000
vt 0.700000 0.300000
vt 0.600000 0.300000
vt 0.700000 0.600000
vt 0.600000 0.600000
vt 0.700000 0.900000
vt 0.650000 1.000000
vt 0.600000 0.900000
vt 0.500000 0.500000
vt 0.500000 0.400000
vt 0.500000 0.800000
vt 0.500000 0.700000
vt 0.550000 0.000000
vt 0.500000 0.100000
vt 0.500000 0.300000
vt 0.500000 0.600000
vt 0.550000 1.000000
vt 0.500000 0.900000
vt 0.500000 0.200000
vt 0.400000 0.900000
vt 0.400000 0.800000
vt 0.400000 0.200000
vt 0.400000 0.100000
vt 0.400000 0.500000
vt 0.400000 0.400000
vt 0.400000 0.700000
vt 0.450000 0.000000
vt 0.400000 0.300000
vt 0.400000 0.600000
vt 0.450000 1.000000
vt 0.300000 0.300000
vt 0.300000 0.200000
vt 0.300000 0.600000
vt 0.300000 0.500000
vt 0.300000 0.900000
vt 0.300000 0.800000
vt 0.300000 0.100000
vt 0.300000 0.400000
vt 0.300000 0.700000
vt 0.350000 0.000000
vt 0.350000 1.000000
vt 0.200000 0.700000
vt 0.200000 0.600000
vt 0.250000 1.000000
vt 0.200000 0.900000
vt 0.200000 0.300000
vt 0.200000 0.200000
vt 0.200000 0.500000
vt 0.200000 0.800000
vt 0.200000 0.100000
vt 0.200000 0.400000
vt 0.250000 0.000000
vt 0.100000 0.400000
vt 0.100000 0.300000
vt 0.100000 0.700000
vt 0.100000 0.600000
vt 0.150000 1.000000
vt 0.100000 0.900000
vt 0.100000 0.200000
vt 0.100000 0.500000
vt 0.100000 0.800000
vt 0.100000 0.100000
vt 0.150000 0.000000
vt 0.000000 0.800000
vt 0.000000 0.700000
vt 0.050000 0.000000
vt 0.000000 0.100000
vt 0.000000 0.400000
vt 0.000000 0.300000
vt 0.000000 0.600000
vt 0.050000 1.000000
vt 0.000000 0.900000
vt 0.000000 0.200000
vt 0.000000 0.500000
vt 1.000000 0.100000
vt 1.000000 0.200000
vt 0.900000 0.200000
vt 0.900000 0.100000
vt 1.000000 0.400000
vt 1.000000 0.500000
vt 0.900000 0.500000
vt 0.900000 0.400000
vt 1.000000 0.700000
vt 1.000000 0.800000
vt 0.900000 0.800000
vt 0.900000 0.700000
vt 0.950000 0.000000
vt 1.000000 0.300000
vt 0.900000 0.300000
vt 1.000000 0.600000
vt 0.900000 0.600000
vt 1.000000 0.900000
vt 0.950000 1.000000
vt 0.900000 0.900000
vt 0.800000 0.600000
vt 0.800000 0.500000
vt 0.800000 0.900000
vt 0.800000 0.800000
vt 0.800000 0.200000
vt 0.800000 0.100000
vt 0.800000 0.400000
vt 0.800000 0.700000
vt 0.850000 0.000000
vt 0.800000 0.300000
vt 0.850000 1.000000
vt 0.750000 1.000000
vt 0.750000 0.000000
vn -0.1459 -0.8815 0.4491
vn -0.3056 -0.1490 0.9404
vn -0.2239 0.6892 0.6892
vn -0.0508 -0.9864 0.1562
vn -0.2781 -0.4361 0.8559
vn -0.2781 0.4361 0.8559
vn -0.0508 0.9864 0.1562
vn -0.2239 -0.6892 0.6892
vn -0.3056 0.1490 0.9404
vn -0.1459 0.8815 0.4491
vn -0.8000 -0.1490 0.5812
vn -0.5862 0.6892 0.4259
vn -0.1329 -0.9864 0.0966
vn -0.7280 -0.4361 0.5290
vn -0.7280 0.4361 0.5290
vn -0.1329 0.9864 0.0966
vn -0.5862 -0.6892 0.4259
vn -0.8000 0.1490 0.5812
vn -0.3821 0.8815 0.2776
vn -0.3821 -0.8815 0.2776
vn -0.4722 0.8815 0.0000
vn -0.4722 -0.8815 0.0000
vn -0.9888 -0.1490 0.0000
vn -0.7246 0.6892 0.0000
vn -0.1643 -0.9864 0.0000
vn -0.8999 -0.4361 0.0000
vn -0.8999 0.4361 0.0000
vn -0.1643 0.9864 0.0000
vn -0.7246 -0.6892 0.0000
vn -0.9888 0.1490 0.0000
vn -0.5862 -0.6892 -0.4259
vn -0.8000 0.1490 -0.5812
vn -0.3821 0.8815 -0.2776
vn -0.3821 -0.8815 -0.2776
vn -0.8000 -0.1490 -0.5812
vn -0.5862 0.6892 -0.4259
vn -0.1329 -0.9864 -0.0966
vn -0.7280 -0.4361 -0.5290
vn -0.7280 0.4361 -0.5290
vn -0.1329 0.9864 -0.0966
vn -0.2781 0.4361 -0.8559
vn -0.0508 0.9864 -0.1562
vn -0.2239 -0.6892 -0.6892
vn -0.3056 0.1490 -0.9404
vn -0.1459 0.8815 -0.4491
vn -0.1459 -0.8815 -0.4491
vn -0.3056 -0.1490 -0.9404
vn -0.2239 0.6892 -0.6891
vn -0.0508 -0.9864 -0.1562
vn -0.2781 -0.4361 -0.8559
vn 0.2781 -0.4361 -0.8559
vn 0.2781 0.4361 -0.8559
vn 0.0508 0.9864 -0.1562
vn 0.2239 -0.6892 -0.6892
vn 0.3056 0.1490 -0.9404
vn 0.1459 0.8815 -0.4491
vn 0.1459 -0.8815 -0.4491
vn 0.3056 -0.1490 -0.9404
vn 0.2239 0.6892 -0.6891
vn 0.0508 -0.9864 -0.1562
vn 0.5862 0.6892 -0.4259
vn 0.1329 -0.9864 -0.0966
vn 0.7280 -0.4361 -0.5290
vn 0.7280 0.4361 -0.5290
vn 0.1329 0.9864 -0.0966
vn 0.5862 -0.6892 -0.4259
vn 0.8000 0.1490 -0.5812
vn 0.3821 0.8815 -0.2776
vn 0.3821 -0.8815 -0.2776
vn 0.8000 -0.1490 -0.5812
vn 0.4722 -0.8815 0.0000
vn 0.9888 -0.1490 -0.0000
vn 0.7246 0.6892 0.0000
vn 0.1643 -0.9864 0.0000
vn 0.8999 -0.4361 -0.0000
vn 0.8999 0.4361 0.0000
vn 0.1643 0.9864 0.0000
vn 0.7246 -0.6892 0.0000
vn 0.9888 0.1490 0.0000
vn 0.4722 0.8815 0.0000
vn 0.8000 0.1490 0.5812
vn 0.3821 0.8815 0.2776
vn 0.3821 -0.8815 0.2776
vn 0.8000 -0.1490 0.5812
vn 0.5862 0.6892 0.4259
vn 0.1329 -0.9864 0.0966
vn 0.7280 -0.4361 0.5290
vn 0.7280 0.4361 0.5290
vn 0.1329 0.9864 0.0966
vn 0.5862 -0.6892 0.4259
vn 0.0508 0.9864 0.1562
vn 0.2239 -0.6892 0.6892
vn 0.3056 0.1490 0.9404
vn 0.1459 0.8815 0.4491
vn 0.1459 -0.8815 0.4491
vn 0.3056 -0.1490 0.9404
vn 0.2239 0.6891 0.6892
vn 0.0508 -0.9864 0.1562
vn 0.2781 -0.4361 0.8559
vn 0.2781 0.4361 0.8559
usemtl earth
s 1
f 1/1/1 2/2/1 3/3/1 4/4/1
f 5/5/2 6/6/2 7/7/2 8/8/2
f 9/9/3 10/10/3 11/11/3 12/12/3
f 13/13/4 1/1/4 4/4/4
f 14/14/5 5/5/5 8/8/5 15/15/5
f 16/16/6 9/9/6 12/12/6 17/17/6
f 18/18/7 19/19/7 20/20/7
f 2/2/8 14/14/8 15/15/8 3/3/8
f 6/6/9 16/16/9 17/17/9 7/7/9
f 10/10/10 18/18/10 20/20/10 11/11/10
f 8/8/11 7/7/11 21/21/11 22/22/11
f 12/12/12 11/11/12 23/23/12 24/24/12
f 13/25/13 4/4/13 25/26/13
f 15/15/14 8/8/14 22/22/14 26/27/14
f 17/17/15 12/12/15 24/24/15 27/28/15
f 20/20/16 19/29/16 28/30/16
f 3/3/17 15/15/17 26/27/17 29/31/17
f 7/7/18 17/17/18 27/28/18 21/21/18
f 11/11/19 20/20/19 28/30/19 23/23/19
f 4/4/20 3/3/20 29/31/20 25/26/20
f 23/23/21 28/30/21 30/32/21 31/33/21
f 25/26/22 29/31/22 32/34/22 33/35/22
f 22/22/23 21/21/23 34/36/23 35/37/23
f 24/24/24 23/23/24 31/33/24 36/38/24
f 13/39/25 25/26/25 33/35/25
f 26/27/26 22/22/26 35/37/26 37/40/26
f 27/28/27 24/24/27 36/38/27 38/41/27
f 28/30/28 19/42/28 30/32/28
f 29/31/29 26/27/29 37/40/29 32/34/29
f 21/21/30 27/28/30 38/41/30 34/36/30
f 32/34/31 37/40/31 39/43/31 40/44/31
f 34/36/32 38/41/32 41/45/32 42/46/32
f 31/33/33 30/32/33 43/47/33 44/48/33
f 33/35/34 32/34/34 40/44/34 45/49/34
f 35/37/35 34/36/35 42/46/35 46/50/35
f 36/38/36 31/33/36 44/48/36 47/51/36
f 13/52/37 33/35/37 45/49/37
f 37/40/38 35/37/38 46/50/38 39/43/38
f 38/41/39 36/38/39 47/51/39 41/45/39
f 30/32/40 19/53/40 43/47/40
f 41/45/41 47/51/41 48/54/41 49/55/41
f 43/47/42 19/56/42 50/57/42
f 40/44/43 39/43/43 51/58/43 52/59/43
f 42/46/44 41/45/44 49/55/44 53/60/44
f 44/48/45 43/47/45 50/57/45 54/61/45
f 45/49/46 40/44/46 52/59/46 55/62/46
f 46/50/47 42/46/47 53/60/47 56/63/47
f 47/51/48 44/48/48 54/61/48 48/54/48
f 13/64/49 45/49/49 55/62/49
f 39/43/50 46/50/50 56/63/50 51/58/50
f 51/58/51 56/63/51 57/65/51 58/66/51
f 49/55/52 48/54/52 59/67/52 60/68/52
f 50/57/53 19/69/53 61/70/53
f 52/59/54 51/58/54 58/66/54 62/71/54
f 53/60/55 49/55/55 60/68/55 63/72/55
f 54/61/56 50/57/56 61/70/56 64/73/56
f 55/62/57 52/59/57 62/71/57 65/74/57
f 56/63/58 53/60/58 63/72/58 57/65/58
f 48/54/59 54/61/59 64/73/59 59/67/59
f 13/75/60 55/62/60 65/74/60
f 59/67/61 64/73/61 66/76/61 67/77/61
f 13/78/62 65/74/62 68/79/62
f 58/66/63 57/65/63 69/80/63 70/81/63
f 60/68/64 59/67/64 67/77/64 71/82/64
f 61/70/65 19/83/65 72/84/65
f 62/71/66 58/66/66 70/81/66 73/85/66
f 63/72/67 60/68/67 71/82/67 74/86/67
f 64/73/68 61/70/68 72/84/68 66/76/68
f 65/74/69 62/71/69 73/85/69 68/79/69
f 57/65/70 63/72/70 74/86/70 69/80/70
f 68/87/71 73/88/71 75/89/71 76/90/71
f 69/91/72 74/92/72 77/93/72 78/94/72
f 67/95/73 66/96/73 79/97/73 80/98/73
f 13/99/74 68/87/74 76/90/74
f 70/100/75 69/91/75 78/94/75 81/101/75
f 71/102/76 67/95/76 80/98/76 82/103/76
f 72/104/77 19/105/77 83/106/77
f 73/88/78 70/100/78 81/101/78 75/89/78
f 74/92/79 71/102/79 82/103/79 77/93/79
f 66/96/80 72/104/80 83/106/80 79/97/80
f 77/93/81 82/103/81 84/107/81 85/108/81
f 79/97/82 83/106/82 86/109/82 87/110/82
f 76/90/83 75/89/83 88/111/83 89/112/83
f 78/94/84 77/93/84 85/108/84 90/113/84
f 80/98/85 79/97/85 87/110/85 91/114/85
f 13/115/86 76/90/86 89/112/86
f 81/101/87 78/94/87 90/113/87 92/116/87
f 82/103/88 80/98/88 91/114/88 84/107/88
f 83/106/89 19/117/89 86/109/89
f 75/89/90 81/101/90 92/116/90 88/111/90
f 86/109/91 19/118/91 18/18/91
f 88/111/92 92/116/92 14/14/92 2/2/92
f 85/108/93 84/107/93 16/16/93 6/6/93
f 87/110/94 86/109/94 18/18/94 10/10/94
f 89/112/95 88/111/95 2/2/95 1/1/95
f 90/113/96 85/108/96 6/6/96 5/5/96
f 91/114/97 87/110/97 10/10/97 9/9/97
f 13/119/98 89/112/98 1/1/98
f 92/116/99 90/113/99 5/5/99 14/14/99
f 84/107/100 91/114/100 9/9/100 16/16/100
o Plane.001
v -12.500000 -2.945075 12.499995
v 12.500000 -2.945075 12.499995
v 12.500000 -2.945055 -12.500005
v -12.500000 -2.945055 -12.500005
vt -0.787677 -0.787677
vt 1.787677 -0.787677
vt 1.787677 1.787677
vt -0.787677 1.787677
vn 0.0000 1.0000 0.0000
usemtl grass
s 1
f 93/120/101 94/121/101 95/122/101 96/123/101
o Plane_Plane.002
v 0.000000 -1.000000 -1.000000
v 0.000000 -1.000000 1.000000
v 0.000000 1.000000 1.000000
v 0.000000 1.000000 -1.000000
vt 0.000000 0.000000
vt 1.000000 0.000000
vt 1.000000 1.000000
vt 0.000000 1.000000
vn -1.0000 0.0000 0.0000
usemtl kitty
s off
f 97/124/102 98/125/102 99/126/102 100/127/102
o Cube_Cube.001
v -200.000000 -200.000031 199.999969
v -200.000000 199.999969 200.000031
v -200.000000 200.000031 -199.999969
v -200.000000 -199.999969 -200.000031
v 200.000000 200.000031 -199.999969
v 200.000000 -199.999969 -200.000031
v 200.000000 199.999969 200.000031
v 200.000000 -200.000031 199.999969
vt 0.996357 0.335799
vt 0.996367 0.664147
vt 0.742746 0.663949
vt 0.743740 0.335768
vt 0.496990 0.664174
vt 0.497056 0.335826
vt 0.250752 0.664232
vt 0.250773 0.335822
vt 0.004500 0.664167
vt 0.004475 0.335757
vt 0.497046 0.005966
vt 0.250696 0.006024
vt 0.497035 0.997058
vt 0.250739 0.997005
vn -1.0000 0.0000 0.0000
vn 0.0000 0.0000 -1.0000
vn 1.0000 -0.0000 0.0000
vn 0.0000 -0.0000 1.0000
vn 0.0000 -1.0000 -0.0000
vn 0.0000 1.0000 0.0000
