# Blender v3.0.0 OBJ File: ''
# www.blender.org
mtllib testmap2.mtl
o Plane_Plane.007
v -10.000000 -0.000006 10.000000
v 10.000000 -0.000006 10.000000
v 10.000000 0.000006 -10.000000
v -10.000000 0.000006 -10.000000
vt -1.000000 -1.000000
vt 2.000000 -1.000000
vt 2.000000 2.000000
vt -1.000000 2.000000
vn 0.0000 1.0000 0.0000
usemtl grass
s 1
f 1/1/1 2/2/1 3/3/1 4/4/1
o Plane.001_Plane.008
v -4.500000 0.000003 -4.500000
v 4.500000 0.000003 -4.500000
v 4.500000 0.500003 -4.500000
v -4.500000 0.500003 -4.500000
vt 0.000000 0.000000
vt 1.000000 0.000000
vt 1.000000 1.000000
vt 0.000000 1.000000
vn 0.0000 0.0000 1.0000
usemtl brown
s 1
f 5/5/2 6/6/2 7/7/2 8/8/2
o Plane.002_Plane.010
v -4.500000 -0.000000 1.500000
v 1.500000 -0.000000 1.500000
v 1.500000 0.500000 1.500000
v -4.500000 0.500000 1.500000
vt 0.000000 0.000000
vt 1.000000 0.000000
vt 1.000000 1.000000
vt 0.000000 1.000000
vn 0.0000 -0.0000 1.0000
usemtl brown
s 1
f 9/9/3 10/10/3 11/11/3 12/12/3
o Plane.003_Plane.011
v -10.000000 -0.000004 10.000000
v -10.000000 -0.000001 4.500000
v -10.000000 2.679489 4.500000
v -10.000000 2.679486 10.000000
vt 0.000000 0.000000
vt 1.000000 0.000000
vt 1.000000 1.000000
vt 0.000000 1.000000
vn 1.0000 0.0000 0.0000
usemtl brown
s 1
f 13/13/4 14/14/4 15/15/4 16/16/4
o Plane.004_Plane.012
v 4.500000 -0.000003 4.500000
v 4.500000 0.000003 -4.500000
v 4.500000 0.500003 -4.500000
v 4.500000 0.499997 4.500000
vt 0.000000 0.000000
vt 1.000000 0.000000
vt 1.000000 1.000000
vt 0.000000 1.000000
vn 1.0000 0.0000 0.0000
usemtl brown
s 1
f 17/17/5 18/18/5 19/19/5 20/20/5
o Plane.005_Plane.013
v 1.500000 -0.000000 1.500000
v 1.500000 0.000000 -1.500000
v 1.500000 0.500000 -1.500000
v 1.500000 0.500000 1.500000
vt 0.000000 0.000000
vt 1.000000 0.000000
vt 1.000000 1.000000
vt 0.000000 1.000000
vn 1.0000 0.0000 0.0000
usemtl brown
s 1
f 21/21/6 22/22/6 23/23/6 24/24/6
o Plane.006_Plane.014
v -1.500000 0.000000 -1.500000
v 1.500000 0.000000 -1.500000
v 1.500000 0.500000 -1.500000
v -1.500000 0.500000 -1.500000
vt 0.000000 0.000000
vt 1.000000 0.000000
vt 1.000000 1.000000
vt 0.000000 1.000000
vn 0.0000 -0.0000 1.0000
usemtl brown
s 1
f 25/25/7 26/26/7 27/27/7 28/28/7
o Plane.007_Plane.015
v -10.000000 -0.000003 4.500000
v 4.500000 -0.000003 4.500000
v 4.500000 0.499997 4.500000
v -10.000000 0.499997 4.500000
vt 0.000000 0.000000
vt 1.000000 0.000000
vt 1.000000 1.000000
vt 0.000000 1.000000
vn 0.0000 0.0000 1.0000
usemtl brown
s 1
f 29/29/8 30/30/8 31/31/8 32/32/8
o Plane.008_Plane.016
v -1.500000 0.000000 -1.500000
v 1.500000 0.000000 -1.500000
v 1.500000 0.500000 -1.500000
v -1.500000 0.500000 -1.500000
vt 0.000000 0.000000
vt 1.000000 0.000000
vt 1.000000 1.000000
vt 0.000000 1.000000
vn 0.0000 -0.0000 1.0000
usemtl brown
s 1
f 33/33/9 34/34/9 35/35/9 36/36/9
o Plane.009_Plane.017
v -9.999948 0.000003 -6.500052
v -6.500052 0.000006 -9.999948
v -6.500052 0.500006 -9.999948
v -9.999948 0.500003 -6.500052
v -10.000000 0.500006 -10.000000
v -10.000000 0.000006 -10.000000
vt 0.000000 0.000000
vt 1.000000 0.000000
vt 1.000000 1.000000
vt 0.000000 1.000000
vt 0.000000 0.000000
vt 0.000000 0.000000
vn 0.7071 0.0000 0.7071
vn -1.0000 0.0000 0.0000
vn 0.0000 0.0000 -1.0000
vn -0.0000 1.0000 0.0000
usemtl brown
s 1
f 37/37/10 38/38/10 39/39/10 40/40/10
f 37/37/11 40/40/11 41/41/11 42/42/11
f 38/38/12 42/42/12 41/41/12 39/39/12
f 40/40/13 39/39/13 41/41/13
o Plane.012_Plane.020
v -9.999999 2.672062 10.000000
v -0.000001 -0.007430 10.000000
v -0.000001 -0.007427 4.500000
v -9.999999 2.672067 4.500001
v -7.780538 2.077361 7.914225
v -7.419225 1.980547 7.989947
v -7.107103 1.896914 7.776013
v -7.107089 1.896910 7.775945
v -7.027484 1.875581 7.398471
v -7.228581 1.929465 7.083164
v -7.605973 2.030587 7.005052
v -7.909561 2.111933 7.212348
v -7.980557 2.130956 7.594897
vt 0.877141 0.123442
vt -0.225171 0.457040
vt -0.273581 0.424950
vt -0.673859 0.123442
vt -0.673859 0.948442
vt -0.360643 0.484208
vt -0.349632 0.541590
vt -0.244012 0.560968
vt -0.212822 0.513671
vt 0.877141 0.948442
vt -0.329620 0.436308
vt -0.302546 0.572684
vt -0.225168 0.457050
vn 0.2588 0.9659 0.0000
vn 0.2596 0.9657 -0.0003
vn 0.2602 0.9656 0.0005
usemtl grass
s 1
f 44/43/14 49/44/15 48/45/14
f 44/43/14 48/45/14 43/46/14
f 46/47/14 55/48/14 54/49/14
f 52/50/14 51/51/14 45/52/14
f 47/53/14 55/48/14 43/46/14
f 46/47/14 43/46/14 55/48/14
f 48/45/14 47/53/14 43/46/14
f 53/54/14 52/50/14 46/47/14
f 44/43/14 50/55/16 49/44/15
f 44/43/14 51/51/14 50/55/16
f 44/43/14 45/52/14 51/51/14
f 45/52/14 46/47/14 52/50/14
f 46/47/14 54/49/14 53/54/14
o Plane.013_Plane.021
v -10.000000 3.172067 4.500000
v 0.000000 0.499997 4.500000
v 0.000000 -0.000003 4.500000
v -10.000000 -0.000003 4.500000
vt 0.000000 0.000000
vt 0.000000 0.000000
vt 1.000000 1.000000
vt 0.000000 1.000000
vn 0.0000 0.0000 -1.0000
usemtl brown
s 1
f 56/56/17 57/57/17 58/58/17 59/59/17
o Cube_Cube.001
v -10.000000 -292.205994 9.999857
v -10.000000 -0.000006 10.000000
v -10.000000 0.000006 -10.000000
v -10.000000 -292.205994 -10.000143
v 10.000000 0.000006 -10.000000
v 10.000000 -292.205994 -10.000143
v 10.000000 -0.000006 10.000000
v 10.000000 -292.205994 9.999857
vt 0.375000 0.000000
vt 0.625000 0.000000
vt 0.625000 0.250000
vt 0.375000 0.250000
vt 0.625000 0.500000
vt 0.375000 0.500000
vt 0.625000 0.750000
vt 0.375000 0.750000
vt 0.625000 1.000000
vt 0.375000 1.000000
vt 0.125000 0.500000
vt 0.125000 0.750000
vn -1.0000 0.0000 0.0000
vn 0.0000 0.0000 -1.0000
vn 1.0000 -0.0000 0.0000
vn 0.0000 -0.0000 1.0000
vn 0.0000 -1.0000 0.0000
usemtl brown
s 1
f 60/60/18 61/61/18 62/62/18 63/63/18
f 63/63/19 62/62/19 64/64/19 65/65/19
f 65/65/20 64/64/20 66/66/20 67/67/20
f 67/67/21 66/66/21 61/68/21 60/69/21
f 63/70/22 65/65/22 67/67/22 60/71/22
o Plane.010_Plane.022
v 6.500052 0.000006 -9.999948
v 9.999948 0.000003 -6.500052
v 9.999948 0.500003 -6.500052
v 6.500052 0.500006 -9.999948
v 10.000000 0.500006 -10.000000
v 10.000000 0.000006 -10.000000
vt 0.000000 0.000000
vt 1.000000 0.000000
vt 1.000000 1.000000
vt 0.000000 1.000000
vt 0.000000 0.000000
vt 0.000000 0.000000
vn -0.7071 0.0000 0.7071
vn -0.0000 0.0000 -1.0000
vn 1.0000 0.0000 0.0000
vn 0.0000 1.0000 0.0000
usemtl brown
s 1
f 68/72/23 69/73/23 70/74/23 71/75/23
f 68/72/24 71/75/24 72/76/24 73/77/24
f 69/73/25 73/77/25 72/76/25 70/74/25
f 71/75/26 70/74/26 72/76/26
o Plane.011_Plane.023
v 9.999949 -0.000003 6.500052
v 6.500052 -0.000006 9.999948
v 6.500052 0.499994 9.999948
v 9.999949 0.499997 6.500052
v 10.000000 0.499994 10.000000
v 10.000000 -0.000006 10.000000
vt 0.000000 0.000000
vt 1.000000 0.000000
vt 1.000000 1.000000
vt 0.000000 1.000000
vt 0.000000 0.000000
vt 0.000000 0.000000
vn -0.7071 0.0000 -0.7071
vn 1.0000 0.0000 -0.0000
vn -0.0000 0.0000 1.0000
vn -0.0000 1.0000 0.0000
usemtl brown
s 1
f 74/78/27 75/79/27 76/80/27 77/81/27
f 74/78/28 77/81/28 78/82/28 79/83/28
f 75/79/29 79/83/29 78/82/29 76/80/29
f 77/81/30 76/80/30 78/82/30
o Plane.013_Plane.001
v -10.000000 2.672065 10.000000
v 0.000000 -0.000005 10.000000
v -10.000000 -0.000005 10.000000
vt 0.000000 0.000000
vt 1.000000 1.000000
vt 0.000000 1.000000
vn 0.0000 0.0000 -1.0000
usemtl brown
s 1
f 80/84/31 81/85/31 82/86/31
o Plane.003_Plane.001
v -4.500000 -0.000000 1.500000
v -4.500000 0.000003 -4.500000
v -4.500000 0.500003 -4.500000
v -4.500000 0.500000 1.500000
vt 0.000000 0.000000
vt 1.000000 0.000000
vt 1.000000 1.000000
vt 0.000000 1.000000
vn 1.0000 0.0000 0.0000
usemtl brown
s 1
f 83/87/32 84/88/32 85/89/32 86/90/32
o Circle
v -7.594222 2.046345 7.009607
v -7.768320 2.092994 7.084267
v -7.901569 2.128698 7.222217
v -7.973683 2.148021 7.402455
v -7.973683 2.148021 7.597547
v -7.901569 2.128698 7.777785
v -7.768320 2.092994 7.915735
v -7.594222 2.046345 7.990395
v -7.405778 1.995851 7.990395
v -7.231680 1.949202 7.915735
v -7.098431 1.913498 7.777785
v -7.026317 1.894175 7.597547
v -7.026317 1.894175 7.402455
v -7.098431 1.913498 7.222217
v -7.231680 1.949202 7.084267
v -7.405778 1.995851 7.009607
vt 0.000000 0.000000
vt 0.000000 0.000000
vt 0.000000 0.000000
vt 0.000000 0.000000
vt 0.000000 0.000000
vt 0.000000 0.000000
vt 0.000000 0.000000
vt 0.000000 0.000000
vt 0.000000 0.000000
vt 0.000000 0.000000
vt 0.000000 0.000000
vt 0.000000 0.000000
vt 0.000000 0.000000
vt 0.000000 0.000000
vt 0.000000 0.000000
vt 0.000000 0.000000
vn 0.2588 0.9659 0.0000
usemtl hole
s off
f 87/91/33 88/92/33 89/93/33 90/94/33 91/95/33 92/96/33 93/97/33 94/98/33 95/99/33 96/100/33 97/101/33 98/102/33 99/103/33 100/104/33 101/105/33 102/106/33
